<svg width="228" height="76" viewBox="0 0 228 76" fill="none" xmlns="http://www.w3.org/2000/svg">
<path d="M25.536 32.976C27.2 32.976 28.72 33.328 30.096 34.032C31.504 34.704 32.608 35.664 33.408 36.912C34.24 38.16 34.656 39.552 34.656 41.088C34.656 45.152 32.816 47.712 29.136 48.768V48.96C33.328 49.92 35.424 52.672 35.424 57.216C35.424 58.944 34.992 60.48 34.128 61.824C33.296 63.136 32.144 64.16 30.672 64.896C29.2 65.632 27.584 66 25.824 66H3.552V32.976H25.536ZM14.16 45.84H21.456C22.16 45.84 22.736 45.6 23.184 45.12C23.664 44.608 23.904 43.984 23.904 43.248V42.768C23.904 42.064 23.664 41.472 23.184 40.992C22.704 40.48 22.128 40.224 21.456 40.224H14.16V45.84ZM14.16 58.32H22.224C22.928 58.32 23.504 58.08 23.952 57.6C24.432 57.088 24.672 56.464 24.672 55.728V55.248C24.672 54.512 24.432 53.904 23.952 53.424C23.504 52.912 22.928 52.656 22.224 52.656H14.16V58.32ZM62.2425 66L60.8505 61.344H49.2825L47.8905 66H37.0425L49.0905 32.976H61.4265L73.4745 66H62.2425ZM51.4905 53.952H58.6425L55.1865 42.192H54.9945L51.4905 53.952ZM93.1538 41.424V66H82.5458V41.424H71.6978V32.976H103.954V41.424H93.1538ZM137.154 66V54.096C137.154 52.624 137.202 51.12 137.298 49.584C137.426 48.016 137.554 46.704 137.682 45.648C137.81 44.592 137.89 43.92 137.922 43.632H137.73L131.634 66H123.33L117.186 43.68H116.994C117.026 43.968 117.106 44.64 117.234 45.696C117.394 46.72 117.538 48.016 117.666 49.584C117.794 51.12 117.858 52.624 117.858 54.096V66H108.114V32.976H123.09L128.082 52.032H128.274L133.218 32.976H147.666V66H137.154ZM176.243 66L174.851 61.344H163.283L161.891 66H151.043L163.091 32.976H175.427L187.475 66H176.243ZM165.491 53.952H172.643L169.187 42.192H168.995L165.491 53.952ZM215.09 66L201.218 49.968V66H191.474V32.976H200.738L214.61 49.248V32.976H224.354V66H215.09Z" fill="white"/>
<path d="M80.16 9.664V24H73.972V9.664H67.644V4.736H86.46V9.664H80.16ZM102.271 24V16.692H95.467V24H89.279V4.736H95.467V11.764H102.271V4.736H108.459V24H102.271ZM112.603 4.736H129.263V9.356H118.791V12.016H127.751V16.44H118.791V19.38H129.459V24H112.603V4.736Z" fill="white"/>
</svg>
